<svg width="95" height="26" viewBox="0 0 95 26" fill="none" xmlns="http://www.w3.org/2000/svg">
<g opacity="0.24">
<path d="M84.105 14.4C84.105 12.8772 84.4174 11.6863 85.0421 10.8272C85.6668 9.95521 86.5584 9.5257 87.7167 9.53872C88.6408 9.5257 89.3632 9.76649 89.8838 10.2611C90.4174 10.7426 90.7819 11.4585 90.9771 12.4086H91.0161V6.9812H93.1246V18.9488H91.0161V16.3523H90.9771C90.5606 18.2525 89.4738 19.2026 87.7167 19.2026C86.5323 19.2026 85.6343 18.7731 85.0226 17.9141C84.4108 17.0551 84.105 15.8837 84.105 14.4ZM91.0161 14.4585V14.3023C91.0161 13.4303 90.7949 12.734 90.3524 12.2134C89.9228 11.6797 89.3306 11.4129 88.5758 11.4129C87.7688 11.4129 87.1701 11.6797 86.7796 12.2134C86.3892 12.734 86.1939 13.4628 86.1939 14.4C86.1939 15.311 86.3827 16.0204 86.7601 16.528C87.1506 17.0356 87.7558 17.2894 88.5758 17.2894C89.3306 17.2894 89.9228 17.0486 90.3524 16.567C90.7949 16.0724 91.0161 15.3696 91.0161 14.4585Z" fill="black"/>
<path d="M83.043 18.9488H80.9345V9.77299H83.043V18.9488ZM83.1211 8.54304H80.8369V6.9812H83.1211V8.54304Z" fill="black"/>
<path d="M77.3189 16.4304H77.2799C77.0847 17.4196 76.7137 18.1289 76.1671 18.5584C75.6204 18.9879 74.9566 19.2027 74.1757 19.2027C73.4338 19.2027 72.8416 19.053 72.3991 18.7537C71.9566 18.4543 71.6312 18.0443 71.423 17.5237C71.2277 17.0031 71.1301 16.4174 71.1301 15.7666V9.77307H73.2386V15.2005C73.2386 15.7601 73.3753 16.2482 73.6486 16.6647C73.9349 17.0812 74.436 17.2894 75.1519 17.2894C75.8287 17.2894 76.3558 17.1072 76.7332 16.7428C77.1237 16.3784 77.3189 15.8643 77.3189 15.2005V9.77307H79.4274V18.9489H77.3189V16.4304Z" fill="black"/>
<path d="M69.8468 6.9812V18.9488H67.7383V6.9812H69.8468Z" fill="black"/>
<path d="M64.4511 9.59737V9.77307H66.833V11.5497H64.4511V18.9489H62.3622V11.5497H60.8979V9.77307H62.3622V9.61689C62.3622 8.71883 62.616 7.98997 63.1236 7.43031C63.6442 6.87065 64.4446 6.59082 65.5249 6.59082C65.8633 6.59082 66.1496 6.61034 66.3839 6.64939C66.6182 6.67542 66.8264 6.70796 67.0087 6.747L66.833 8.2698C66.6507 8.24377 66.475 8.22425 66.3058 8.21123C66.1366 8.1852 65.9674 8.17219 65.7982 8.17219C64.9002 8.17219 64.4511 8.64725 64.4511 9.59737Z" fill="black"/>
<path d="M60.8192 14.3219C60.8192 15.8447 60.5068 17.0421 59.8821 17.9141C59.2574 18.7731 58.3658 19.2026 57.2074 19.2026C56.2964 19.2026 55.574 18.9618 55.0404 18.4803C54.5068 17.9857 54.1423 17.2698 53.9471 16.3327H53.908V18.9488H51.7996V6.9812H53.908V12.3696H53.9471C54.3766 10.4823 55.4699 9.53872 57.227 9.53872C58.4114 9.53872 59.3029 9.96822 59.9016 10.8272C60.5133 11.6732 60.8192 12.8381 60.8192 14.3219ZM53.908 14.2633V14.4195C53.908 15.3045 54.1228 16.0074 54.5523 16.528C54.9948 17.0486 55.6 17.3089 56.368 17.3089C57.1619 17.3089 57.7541 17.0486 58.1445 16.528C58.535 15.9943 58.7302 15.259 58.7302 14.3219C58.7302 13.4108 58.535 12.7015 58.1445 12.1939C57.7671 11.6863 57.1749 11.4325 56.368 11.4325C55.6 11.4325 54.9948 11.6797 54.5523 12.1743C54.1228 12.6559 53.908 13.3522 53.908 14.2633Z" fill="black"/>
<path d="M48.3201 16.4304H48.2811C48.0859 17.4196 47.7149 18.1289 47.1683 18.5584C46.6216 18.9879 45.9579 19.2027 45.1769 19.2027C44.4351 19.2027 43.8429 19.053 43.4003 18.7537C42.9578 18.4543 42.6324 18.0443 42.4242 17.5237C42.229 17.0031 42.1313 16.4174 42.1313 15.7666V9.77307H44.2398V15.2005C44.2398 15.7601 44.3765 16.2482 44.6498 16.6647C44.9362 17.0812 45.4372 17.2894 46.1531 17.2894C46.8299 17.2894 47.357 17.1072 47.7345 16.7428C48.1249 16.3784 48.3201 15.8643 48.3201 15.2005V9.77307H50.4286V18.9489H48.3201V16.4304Z" fill="black"/>
<path d="M37.5492 19.2027C36.5731 19.2027 35.7922 19.0661 35.2065 18.7927C34.6208 18.5064 34.1782 18.129 33.8789 17.6604C33.5795 17.1788 33.3778 16.6387 33.2737 16.04L35.2455 15.6495C35.3887 16.2222 35.6295 16.6908 35.9679 17.0552C36.3193 17.4066 36.8594 17.5823 37.5883 17.5823C38.1479 17.5823 38.5644 17.4847 38.8377 17.2895C39.1111 17.0812 39.2542 16.7949 39.2673 16.4304C39.2673 16.0921 39.1111 15.8252 38.7987 15.63C38.4993 15.4348 37.8876 15.2526 36.9635 15.0834C35.7271 14.8491 34.855 14.5042 34.3474 14.0486C33.8529 13.5931 33.6056 13.0009 33.6056 12.272C33.6056 11.4391 33.9049 10.7753 34.5036 10.2807C35.1154 9.78611 36.0199 9.53882 37.2173 9.53882C38.4668 9.53882 39.3844 9.79262 39.9701 10.3002C40.5558 10.8078 40.9462 11.4976 41.1415 12.3697L39.1306 12.8187C38.9874 12.22 38.7662 11.784 38.4668 11.5106C38.1805 11.2373 37.764 11.1007 37.2173 11.1007C36.7228 11.1007 36.3453 11.1983 36.085 11.3935C35.8247 11.5757 35.6945 11.836 35.6945 12.1744C35.6945 12.3827 35.7466 12.5714 35.8507 12.7406C35.9679 12.9098 36.1826 13.066 36.495 13.2091C36.8204 13.3393 37.2954 13.4564 37.9202 13.5606C39.1957 13.7948 40.0807 14.1463 40.5753 14.6148C41.0829 15.0834 41.3367 15.6691 41.3367 16.3719C41.3367 17.2309 41.0308 17.9207 40.4191 18.4413C39.8074 18.9489 38.8508 19.2027 37.5492 19.2027Z" fill="black"/>
<path d="M20.408 3.75698C20.9792 4.03267 21.2188 4.71921 20.9431 5.29041L17.5173 12.3884L16.8503 3.38318L9.38508 8.4634L12.8109 1.36543C13.0866 0.794227 13.7731 0.554665 14.3443 0.830353L20.408 3.75698Z" fill="black"/>
<path d="M0.46472 10.2757C0.417871 9.64317 0.892651 9.09244 1.52517 9.04559L9.3851 8.46343L1.91985 13.5437L10.0521 17.4686L2.19215 18.0508C1.55963 18.0976 1.0089 17.6229 0.962049 16.9903L0.46472 10.2757Z" fill="black"/>
<path d="M16.0816 24.2878C15.5572 24.6446 14.8429 24.5088 14.4861 23.9844L10.0519 17.4686L18.1842 21.3936L17.5172 12.3884L21.9513 18.9042C22.3081 19.4286 22.1723 20.1429 21.648 20.4997L16.0816 24.2878Z" fill="black"/>
</g>
</svg>
