<svg width="58" height="50" viewBox="0 0 58 50" fill="none" xmlns="http://www.w3.org/2000/svg">
<path d="M36.8142 0.00178312C38.2869 0.00188732 39.4808 1.19588 39.4807 2.66864L39.4794 20.9697L28.9968 2.81038L18.5116 20.9682L18.5129 2.66716C18.513 1.1944 19.707 0.000572752 21.1798 0.000676953L36.8142 0.00178312Z" fill="#E8B95E"/>
<path d="M1.68542 33.7603C0.949126 32.4848 1.38624 30.8539 2.66174 30.1176L18.5116 20.9682L8.02644 39.126L28.9942 39.1275L13.1443 48.2769C11.8688 49.0132 10.238 48.5761 9.50167 47.3006L1.68542 33.7603Z" fill="#9B5EE8"/>
<path d="M48.4856 47.3034C47.7491 48.5788 46.1182 49.0157 44.8428 48.2792L28.9942 39.1275L49.962 39.129L39.4794 20.9697L55.328 30.1213C56.6034 30.8578 57.0402 32.4887 56.3038 33.7641L48.4856 47.3034Z" fill="#9B5EE8"/>
</svg>
