<svg width="135" height="37" viewBox="0 0 135 37" fill="none" xmlns="http://www.w3.org/2000/svg">
<path d="M120.15 20.5714C120.15 18.3959 120.596 16.6946 121.489 15.4675C122.381 14.2217 123.655 13.6081 125.31 13.6267C126.63 13.6081 127.662 13.9521 128.405 14.6587C129.168 15.3466 129.688 16.3693 129.967 17.7266H130.023V9.97314H133.035V27.0697H130.023V23.3604H129.967C129.372 26.075 127.82 27.4323 125.31 27.4323C123.618 27.4323 122.335 26.8187 121.461 25.5916C120.587 24.3644 120.15 22.691 120.15 20.5714ZM130.023 20.655V20.4319C130.023 19.1862 129.707 18.1914 129.075 17.4477C128.461 16.6853 127.615 16.3042 126.537 16.3042C125.384 16.3042 124.529 16.6853 123.971 17.4477C123.413 18.1914 123.134 19.2326 123.134 20.5714C123.134 21.8729 123.404 22.8862 123.943 23.6114C124.501 24.3365 125.365 24.6991 126.537 24.6991C127.615 24.6991 128.461 24.3551 129.075 23.6672C129.707 22.9606 130.023 21.9566 130.023 20.655Z" fill="black"/>
<path d="M118.633 27.0697H115.621V13.9614H118.633V27.0697ZM118.745 12.2043H115.481V9.97314H118.745V12.2043Z" fill="black"/>
<path d="M110.455 23.4719H110.4C110.121 24.885 109.591 25.8984 108.81 26.5119C108.029 27.1255 107.081 27.4323 105.965 27.4323C104.905 27.4323 104.059 27.2185 103.427 26.7908C102.795 26.3632 102.33 25.7775 102.033 25.0338C101.754 24.29 101.614 23.4533 101.614 22.5237V13.9614H104.626V21.7149C104.626 22.5144 104.822 23.2116 105.212 23.8066C105.621 24.4016 106.337 24.6991 107.36 24.6991C108.326 24.6991 109.079 24.4388 109.619 23.9182C110.177 23.3976 110.455 22.6631 110.455 21.7149V13.9614H113.468V27.0697H110.455V23.4719Z" fill="black"/>
<path d="M99.7809 9.97314V27.0697H96.7688V9.97314H99.7809Z" fill="black"/>
<path d="M92.0731 13.7104V13.9614H95.4756V16.4994H92.0731V27.0697H89.0888V16.4994H86.9971V13.9614H89.0888V13.7383C89.0888 12.4554 89.4514 11.4141 90.1765 10.6146C90.9203 9.8151 92.0638 9.41534 93.607 9.41534C94.0904 9.41534 94.4995 9.44323 94.8342 9.49901C95.1689 9.5362 95.4663 9.58268 95.7267 9.63846L95.4756 11.8139C95.2153 11.7767 94.9643 11.7488 94.7226 11.7302C94.4809 11.693 94.2392 11.6744 93.9975 11.6744C92.7145 11.6744 92.0731 12.3531 92.0731 13.7104Z" fill="black"/>
<path d="M86.8845 20.4598C86.8845 22.6352 86.4382 24.3458 85.5457 25.5916C84.6533 26.8187 83.3796 27.4323 81.7248 27.4323C80.4233 27.4323 79.3913 27.0883 78.629 26.4004C77.8667 25.6938 77.3461 24.6712 77.0672 23.3325H77.0114V27.0697H73.9993V9.97314H77.0114V17.6708H77.0672C77.6808 14.9748 79.2426 13.6267 81.7527 13.6267C83.4447 13.6267 84.7183 14.2403 85.5736 15.4675C86.4475 16.6761 86.8845 18.3402 86.8845 20.4598ZM77.0114 20.3761V20.5993C77.0114 21.8636 77.3182 22.8676 77.9318 23.6114C78.5639 24.3551 79.4285 24.727 80.5255 24.727C81.6597 24.727 82.5057 24.3551 83.0635 23.6114C83.6213 22.849 83.9002 21.7985 83.9002 20.4598C83.9002 19.1583 83.6213 18.1449 83.0635 17.4198C82.5243 16.6946 81.6783 16.3321 80.5255 16.3321C79.4285 16.3321 78.5639 16.6853 77.9318 17.3919C77.3182 18.0799 77.0114 19.0746 77.0114 20.3761Z" fill="black"/>
<path d="M69.0289 23.4719H68.9731C68.6942 24.885 68.1643 25.8984 67.3834 26.5119C66.6025 27.1255 65.6542 27.4323 64.5386 27.4323C63.4788 27.4323 62.6328 27.2185 62.0006 26.7908C61.3684 26.3632 60.9036 25.7775 60.6061 25.0338C60.3272 24.29 60.1877 23.4533 60.1877 22.5237V13.9614H63.1999V21.7149C63.1999 22.5144 63.3951 23.2116 63.7856 23.8066C64.1946 24.4016 64.9105 24.6991 65.9331 24.6991C66.8999 24.6991 67.653 24.4388 68.1922 23.9182C68.75 23.3976 69.0289 22.6631 69.0289 21.7149V13.9614H72.041V27.0697H69.0289V23.4719Z" fill="black"/>
<path d="M53.6416 27.4323C52.2471 27.4323 51.1315 27.2371 50.2948 26.8466C49.4581 26.4376 48.8259 25.8984 48.3983 25.229C47.9706 24.5411 47.6824 23.7694 47.5337 22.9141L50.3506 22.3563C50.5551 23.1744 50.8991 23.8438 51.3825 24.3644C51.8845 24.8664 52.6562 25.1175 53.6974 25.1175C54.4969 25.1175 55.0919 24.978 55.4824 24.6991C55.8728 24.4016 56.0773 23.9926 56.0959 23.4719C56.0959 22.9885 55.8728 22.6073 55.4266 22.3284C54.9989 22.0495 54.125 21.7892 52.8049 21.5475C51.0385 21.2128 49.7928 20.7201 49.0676 20.0694C48.3611 19.4186 48.0078 18.5726 48.0078 17.5314C48.0078 16.3414 48.4355 15.3931 49.2908 14.6866C50.1647 13.98 51.4569 13.6268 53.1675 13.6268C54.9524 13.6268 56.2633 13.9893 57.1 14.7145C57.9367 15.4396 58.4945 16.4251 58.7734 17.6708L55.9007 18.3123C55.6962 17.457 55.3801 16.8341 54.9524 16.4436C54.5434 16.0532 53.9484 15.858 53.1675 15.858C52.4609 15.858 51.9217 15.9974 51.5499 16.2763C51.178 16.5366 50.9921 16.9085 50.9921 17.3919C50.9921 17.6894 51.0664 17.959 51.2152 18.2007C51.3825 18.4424 51.6893 18.6656 52.1355 18.8701C52.6004 19.056 53.279 19.2234 54.1715 19.3721C55.9937 19.7068 57.258 20.2088 57.9646 20.8782C58.6897 21.5475 59.0523 22.3842 59.0523 23.3883C59.0523 24.6154 58.6153 25.6009 57.7414 26.3446C56.8676 27.0698 55.5009 27.4323 53.6416 27.4323Z" fill="black"/>
<path d="M29.1544 5.36713C29.9704 5.76097 30.3126 6.74174 29.9188 7.55775L25.0248 17.6977L24.0719 4.83313L13.4073 12.0906L18.3013 1.95063C18.6951 1.13463 19.6759 0.7924 20.4919 1.18624L29.1544 5.36713Z" fill="#E2B356"/>
<path d="M0.663711 14.6795C0.596785 13.7759 1.27504 12.9892 2.17864 12.9222L13.4071 12.0906L2.74247 19.3481L14.3599 24.9552L3.13147 25.7868C2.22787 25.8538 1.44111 25.1755 1.37418 24.2719L0.663711 14.6795Z" fill="#8D50DB"/>
<path d="M22.9739 34.6968C22.2248 35.2066 21.2043 35.0126 20.6946 34.2635L14.3601 24.9552L25.9776 30.5623L25.0248 17.6977L31.3592 27.0061C31.869 27.7551 31.675 28.7756 30.9259 29.2854L22.9739 34.6968Z" fill="#8D50DB"/>
</svg>
