<svg width="24" height="24" viewBox="0 0 24 24" fill="none" xmlns="http://www.w3.org/2000/svg">
<path d="M8.04597 19.2044C8.29083 19.2786 8.51735 19.402 8.71192 19.5664C10.4451 20.3196 12.3856 20.4554 14.2087 19.9488C16.0691 19.4319 17.6892 18.2788 18.787 16.6904C19.8847 15.1019 20.3905 13.1787 20.2163 11.2557C20.0421 9.3327 19.199 7.53171 17.8336 6.16638C16.4683 4.80104 14.6673 3.95786 12.7443 3.78366C10.8213 3.60946 8.89811 4.11527 7.30965 5.21303C5.72119 6.31079 4.56809 7.93093 4.05116 9.79132C3.54465 11.6142 3.68035 13.5546 4.43338 15.2876C4.59846 15.4826 4.72233 15.7096 4.79674 15.9552C4.88642 16.251 4.9015 16.5645 4.84064 16.8676L4.2664 19.7339L7.13354 19.1605C7.43665 19.0996 7.7501 19.1147 8.04597 19.2044Z" stroke="#404040" stroke-width="1.5"/>
</svg>
