<svg width="24" height="24" viewBox="0 0 24 24" fill="none" xmlns="http://www.w3.org/2000/svg">
<path d="M11.4657 5.37935L12 5.92175L12.5343 5.37935L12.6663 5.24535L12.6678 5.24385C13.1311 4.77085 13.6842 4.39508 14.2946 4.13855C14.905 3.88202 15.5604 3.74988 16.2225 3.74988C16.8846 3.74988 17.5401 3.88202 18.1505 4.13855C18.7609 4.39508 19.3139 4.77085 19.7772 5.24385L19.7787 5.24536C21.7389 7.2352 21.7411 10.4575 19.7852 12.4501L12 19.9581L4.21473 12.45C2.25902 10.4585 2.26101 7.23528 4.2213 5.24536L4.22279 5.24385C4.68611 4.77085 5.23917 4.39508 5.84956 4.13855C6.45995 3.88202 7.1154 3.74988 7.77751 3.74988C8.43962 3.74988 9.09507 3.88202 9.70546 4.13855C10.3159 4.39508 10.8689 4.77085 11.3322 5.24385L11.3337 5.24535L11.4657 5.37935Z" stroke="#404040" stroke-width="1.5"/>
</svg>
