<svg width="28" height="28" viewBox="0 0 28 28" fill="none" xmlns="http://www.w3.org/2000/svg">
<g clip-path="url(#clip0_40_2417)">
<path d="M14 28C6.26794 28 0 21.7321 0 13.9998C0 6.26787 6.2679 0 14 0C21.7321 0 28 6.26787 28 13.9998C28 21.7321 21.7319 28 14 28Z" fill="#F0F0F0"/>
<path d="M20.1495 9.17952C20.2759 9.05347 20.2759 8.84853 20.1495 8.72263L19.9211 8.49412C19.795 8.36772 19.5905 8.36772 19.4642 8.49412L14.3212 13.6365L9.23794 8.55373C9.11234 8.42799 8.90847 8.42799 8.78288 8.55373L8.55531 8.78137C8.42972 8.90711 8.42972 9.11072 8.55531 9.23643L13.6384 14.3194L8.49409 19.4641C8.36785 19.5903 8.36785 19.795 8.49409 19.921L8.72277 20.1495C8.84901 20.2759 9.05349 20.2759 9.17965 20.1495L14.3241 15.0049L19.4788 20.16C19.6046 20.2857 19.8081 20.2857 19.9338 20.16L20.1615 19.9323C20.2872 19.8066 20.2872 19.6029 20.1615 19.4772L15.0067 14.3222L20.1495 9.17952Z" fill="#333333"/>
</g>
<defs>
<clipPath id="clip0_40_2417">
<rect width="28" height="28" fill="white"/>
</clipPath>
</defs>
</svg>
