<svg width="64" height="64" viewBox="0 0 64 64" fill="none" xmlns="http://www.w3.org/2000/svg">
<g clip-path="url(#clip0_39_1056)">
<path d="M32 64C14.326 64 0 49.674 0 32C0 14.326 14.326 0 32 0C49.674 0 64 14.326 64 32C64 49.674 49.674 64 32 64ZM28.902 40.428L19.746 31.164L13.714 36.93C18.102 39.29 24.254 43.606 29.52 50.286C33.24 43.29 44.708 28.98 50.286 27.706C49.386 24.098 48.876 17.33 50.286 13.714C38.846 21.258 28.902 40.428 28.902 40.428Z" fill="#8D50DB"/>
</g>
<defs>
<clipPath id="clip0_39_1056">
<rect width="64" height="64" fill="white"/>
</clipPath>
</defs>
</svg>
